<svg width="148" height="183" viewBox="0 0 148 183" fill="none" xmlns="http://www.w3.org/2000/svg">
<rect y="0.462799" width="4" height="111.537" fill="black"/>
<rect x="144" y="0.462799" width="4" height="111.537" fill="black"/>
<rect width="4" height="9.71901" transform="matrix(-1 0 0 1 76 0)" fill="#E4E4CD"/>
<rect width="4" height="9.71901" transform="matrix(-1 0 0 1 76 0)" fill="#E4E4CD"/>
<rect width="4" height="9.71901" transform="matrix(-1 0 0 1 76 35.6364)" fill="#E4E4CD"/>
<rect width="4" height="9.71901" transform="matrix(-1 0 0 1 76 68.9587)" fill="#E4E4CD"/>
<rect width="4" height="9.71901" transform="matrix(-1 0 0 1 76 53.6859)" fill="#E4E4CD"/>
<rect width="4" height="9.71901" transform="matrix(-1 0 0 1 76 85.157)" fill="#E4E4CD"/>
<rect width="4" height="9.71901" transform="matrix(-1 0 0 1 76 102.281)" fill="#E4E4CD"/>
<rect width="4" height="9.71901" transform="matrix(-1 0 0 1 76 18.0496)" fill="#E4E4CD"/>
<g clip-path="url(#clip0_1_36)">
<path fill-rule="evenodd" clip-rule="evenodd" d="M23.17 45.23C12.19 39.65 13.45 33.43 24.48 34.08L26.95 38.71L32.04 22.88C34.04 16.65 37.37 11 43.9 11H109C115.53 11 119.29 16.54 120.87 22.87L124.69 38.22L126.89 34.08C138.23 33.42 139.24 40.01 127.24 45.7L129.19 48.69C137.08 56.8 136.34 71.14 135.11 91.17V99.31C135.11 101.35 133.44 103.02 131.4 103.02H115.57C113.53 103.02 111.86 101.35 111.86 99.31V94.77H37.04V99.31C37.04 101.35 35.37 103.02 33.33 103.02H17.5C15.46 103.02 13.79 101.35 13.79 99.31V89.2C13.79 89 13.81 88.81 13.83 88.62C12.63 73.25 10.94 53.15 23.17 45.23ZM43.38 69.7L29.32 67.93C26 67.56 25.11 68.96 26.24 71.82L27.76 75.51C28.25 76.46 28.9 77.15 29.66 77.63C30.55 78.18 31.62 78.45 32.81 78.5L45.35 78.6C48.38 78.59 49.69 77.38 48.74 74.6C47.96 71.99 46.18 70.35 43.38 69.7ZM67.38 63.79H81.78C82.63 63.79 83.33 64.49 83.33 65.34C83.33 66.19 82.63 66.89 81.78 66.89H67.38C66.53 66.89 65.83 66.19 65.83 65.34C65.82 64.49 66.52 63.79 67.38 63.79ZM102.96 84.15H117.36C118.21 84.15 118.91 84.85 118.91 85.7C118.91 86.55 118.21 87.25 117.36 87.25H102.96C102.11 87.25 101.41 86.55 101.41 85.7C101.41 84.85 102.1 84.15 102.96 84.15ZM105.5 69.7L119.56 67.93C122.88 67.56 123.77 68.96 122.64 71.82L121.12 75.51C120.63 76.46 119.98 77.15 119.22 77.63C118.33 78.18 117.26 78.45 116.07 78.5L103.53 78.6C100.5 78.59 99.19 77.38 100.14 74.6C100.92 71.99 102.7 70.35 105.5 69.7ZM31.41 84.15H45.81C46.66 84.15 47.36 84.85 47.36 85.7C47.36 86.55 46.66 87.25 45.81 87.25H31.41C30.56 87.25 29.86 86.55 29.86 85.7C29.86 84.85 30.56 84.15 31.41 84.15ZM32.23 42.2H119.05L115.22 26.28C114.17 21.43 111.15 17.23 106.17 17.23H46.06C41.09 17.23 38.54 21.54 37.01 26.28L32.23 42.2Z" fill="#2575DD"/>
</g>
<path d="M14.6518 145.275C13.0518 145.275 11.6268 144.975 10.3768 144.375C9.12676 143.758 8.14342 142.858 7.42676 141.675C6.71009 140.475 6.35176 138.983 6.35176 137.2C6.35176 135.783 6.56842 134.467 7.00176 133.25C7.43509 132.017 8.06009 130.942 8.87676 130.025C9.71009 129.108 10.7268 128.392 11.9268 127.875C13.1434 127.358 14.5268 127.1 16.0768 127.1C16.9434 127.1 17.8018 127.208 18.6518 127.425C19.5018 127.642 20.2684 127.967 20.9518 128.4C21.3184 128.617 21.5518 128.892 21.6518 129.225C21.7684 129.558 21.7851 129.9 21.7018 130.25C21.6351 130.583 21.4934 130.883 21.2768 131.15C21.0601 131.417 20.7934 131.592 20.4768 131.675C20.1768 131.758 19.8518 131.708 19.5018 131.525C18.8518 131.142 18.2434 130.883 17.6768 130.75C17.1268 130.6 16.5601 130.525 15.9768 130.525C14.7768 130.525 13.7684 130.817 12.9518 131.4C12.1351 131.967 11.5184 132.75 11.1018 133.75C10.6851 134.733 10.4768 135.842 10.4768 137.075C10.4768 138.175 10.6434 139.083 10.9768 139.8C11.3101 140.5 11.8184 141.017 12.5018 141.35C13.1851 141.683 14.0434 141.85 15.0768 141.85C15.5934 141.85 16.1101 141.792 16.6268 141.675C17.1434 141.542 17.6684 141.333 18.2018 141.05C18.6018 140.85 18.9601 140.792 19.2768 140.875C19.6101 140.942 19.8768 141.108 20.0768 141.375C20.2768 141.625 20.4018 141.917 20.4518 142.25C20.5018 142.583 20.4518 142.908 20.3018 143.225C20.1518 143.542 19.8851 143.808 19.5018 144.025C18.8018 144.442 18.0101 144.758 17.1268 144.975C16.2434 145.175 15.4184 145.275 14.6518 145.275ZM30.8807 145.275C29.264 145.275 27.8473 144.967 26.6307 144.35C25.4307 143.733 24.4973 142.842 23.8307 141.675C23.164 140.508 22.8307 139.1 22.8307 137.45C22.8307 135.95 23.0473 134.567 23.4807 133.3C23.9307 132.033 24.564 130.942 25.3807 130.025C26.214 129.092 27.2057 128.375 28.3557 127.875C29.5057 127.358 30.7973 127.1 32.2307 127.1C33.864 127.1 35.2807 127.408 36.4807 128.025C37.6973 128.642 38.6307 129.533 39.2807 130.7C39.9473 131.867 40.2807 133.267 40.2807 134.9C40.2807 136.417 40.064 137.808 39.6307 139.075C39.1973 140.342 38.564 141.442 37.7307 142.375C36.914 143.292 35.9307 144.008 34.7807 144.525C33.6307 145.025 32.3307 145.275 30.8807 145.275ZM30.9557 141.975C32.0723 141.975 33.0223 141.675 33.8057 141.075C34.6057 140.475 35.214 139.65 35.6307 138.6C36.0473 137.533 36.2557 136.325 36.2557 134.975C36.2557 133.425 35.889 132.275 35.1557 131.525C34.4223 130.775 33.4223 130.4 32.1557 130.4C31.039 130.4 30.089 130.7 29.3057 131.3C28.5223 131.883 27.9223 132.7 27.5057 133.75C27.089 134.8 26.8807 136.017 26.8807 137.4C26.8807 138.933 27.239 140.083 27.9557 140.85C28.689 141.6 29.689 141.975 30.9557 141.975ZM43.7531 145.225C43.1865 145.225 42.7531 145.042 42.4531 144.675C42.1698 144.292 42.0781 143.758 42.1781 143.075L44.4531 128.8C44.5531 128.25 44.7531 127.842 45.0531 127.575C45.3698 127.292 45.7615 127.15 46.2281 127.15C46.7281 127.15 47.1031 127.25 47.3531 127.45C47.6198 127.633 47.8865 127.942 48.1531 128.375L55.0281 139.875H54.3531L56.0781 128.95C56.1781 128.333 56.3948 127.883 56.7281 127.6C57.0781 127.3 57.5531 127.15 58.1531 127.15C58.7198 127.15 59.1281 127.342 59.3781 127.725C59.6448 128.092 59.7281 128.608 59.6281 129.275L57.3781 143.55C57.2948 144.1 57.1115 144.517 56.8281 144.8C56.5448 145.083 56.1698 145.225 55.7031 145.225C55.2031 145.225 54.8031 145.125 54.5031 144.925C54.2031 144.725 53.9198 144.408 53.6531 143.975L46.7781 132.5H47.4531L45.7281 143.425C45.6448 144.025 45.4448 144.475 45.1281 144.775C44.8115 145.075 44.3531 145.225 43.7531 145.225ZM66.852 145.225C66.2186 145.225 65.752 145.025 65.452 144.625C65.1686 144.208 65.0853 143.65 65.202 142.95L67.152 130.575H63.052C62.5186 130.575 62.102 130.458 61.802 130.225C61.502 129.992 61.352 129.675 61.352 129.275C61.352 128.675 61.5186 128.208 61.852 127.875C62.202 127.542 62.677 127.375 63.277 127.375H75.652C76.202 127.375 76.6186 127.492 76.902 127.725C77.202 127.942 77.352 128.25 77.352 128.65C77.352 129.25 77.1853 129.725 76.852 130.075C76.5186 130.408 76.052 130.575 75.452 130.575H71.052L69.027 143.275C68.927 143.908 68.6936 144.392 68.327 144.725C67.977 145.058 67.4853 145.225 66.852 145.225ZM78.3979 145.225C77.7979 145.225 77.3479 145.025 77.0479 144.625C76.7645 144.208 76.6812 143.642 76.7979 142.925L78.9729 129.3C79.0562 128.667 79.2895 128.192 79.6729 127.875C80.0562 127.542 80.5729 127.375 81.2229 127.375H86.4979C88.4645 127.375 89.9645 127.817 90.9979 128.7C92.0479 129.583 92.5729 130.792 92.5729 132.325C92.5729 133.658 92.2812 134.758 91.6979 135.625C91.1145 136.475 90.3062 137.108 89.2729 137.525C88.2395 137.925 87.0645 138.125 85.7479 138.125V137.7H86.5479C87.3645 137.7 88.0312 137.933 88.5479 138.4C89.0645 138.85 89.4812 139.475 89.7979 140.275L90.7479 142.725C90.9479 143.242 91.0145 143.692 90.9479 144.075C90.8979 144.442 90.7229 144.725 90.4229 144.925C90.1229 145.125 89.6979 145.225 89.1479 145.225C88.6145 145.225 88.1895 145.092 87.8729 144.825C87.5562 144.542 87.2895 144.108 87.0729 143.525L85.5979 139.65C85.4145 139.117 85.1562 138.742 84.8229 138.525C84.5062 138.292 84.0645 138.175 83.4979 138.175H81.4229L80.6479 143.275C80.5479 143.925 80.3062 144.417 79.9229 144.75C79.5562 145.067 79.0479 145.225 78.3979 145.225ZM81.8729 135.375H85.6729C86.6895 135.375 87.4729 135.15 88.0229 134.7C88.5729 134.233 88.8479 133.55 88.8479 132.65C88.8479 131.9 88.6062 131.342 88.1229 130.975C87.6562 130.592 86.9062 130.4 85.8729 130.4H82.6729L81.8729 135.375ZM102.658 145.275C101.041 145.275 99.6247 144.967 98.408 144.35C97.208 143.733 96.2747 142.842 95.608 141.675C94.9413 140.508 94.608 139.1 94.608 137.45C94.608 135.95 94.8247 134.567 95.258 133.3C95.708 132.033 96.3413 130.942 97.158 130.025C97.9913 129.092 98.983 128.375 100.133 127.875C101.283 127.358 102.575 127.1 104.008 127.1C105.641 127.1 107.058 127.408 108.258 128.025C109.475 128.642 110.408 129.533 111.058 130.7C111.725 131.867 112.058 133.267 112.058 134.9C112.058 136.417 111.841 137.808 111.408 139.075C110.975 140.342 110.341 141.442 109.508 142.375C108.691 143.292 107.708 144.008 106.558 144.525C105.408 145.025 104.108 145.275 102.658 145.275ZM102.733 141.975C103.85 141.975 104.8 141.675 105.583 141.075C106.383 140.475 106.991 139.65 107.408 138.6C107.825 137.533 108.033 136.325 108.033 134.975C108.033 133.425 107.666 132.275 106.933 131.525C106.2 130.775 105.2 130.4 103.933 130.4C102.816 130.4 101.866 130.7 101.083 131.3C100.3 131.883 99.6997 132.7 99.283 133.75C98.8663 134.8 98.658 136.017 98.658 137.4C98.658 138.933 99.0163 140.083 99.733 140.85C100.466 141.6 101.466 141.975 102.733 141.975ZM115.805 145C115.122 145 114.622 144.817 114.305 144.45C113.989 144.067 113.88 143.542 113.98 142.875L116.205 128.95C116.305 128.35 116.53 127.9 116.88 127.6C117.23 127.3 117.705 127.15 118.305 127.15C118.955 127.15 119.43 127.342 119.73 127.725C120.03 128.092 120.13 128.608 120.03 129.275L118.055 141.725H124.43C124.997 141.725 125.43 141.842 125.73 142.075C126.03 142.308 126.18 142.633 126.18 143.05C126.18 143.667 126.005 144.15 125.655 144.5C125.305 144.833 124.83 145 124.23 145H115.805ZM130.212 145C129.495 145 128.978 144.817 128.662 144.45C128.345 144.067 128.237 143.525 128.337 142.825L130.487 129.25C130.587 128.633 130.82 128.167 131.187 127.85C131.553 127.533 132.045 127.375 132.662 127.375H141.262C141.778 127.375 142.17 127.483 142.437 127.7C142.72 127.9 142.862 128.2 142.862 128.6C142.862 129.167 142.695 129.608 142.362 129.925C142.045 130.242 141.612 130.4 141.062 130.4H134.012L133.362 134.525H139.587C140.103 134.525 140.495 134.633 140.762 134.85C141.028 135.067 141.162 135.367 141.162 135.75C141.162 136.317 140.995 136.767 140.662 137.1C140.345 137.417 139.92 137.575 139.387 137.575H132.887L132.187 141.975H138.937C139.453 141.975 139.845 142.083 140.112 142.3C140.395 142.5 140.537 142.8 140.537 143.2C140.537 143.767 140.37 144.208 140.037 144.525C139.72 144.842 139.287 145 138.737 145H130.212ZM9.50367 182C8.76567 182 8.21667 181.793 7.85667 181.379C7.49667 180.965 7.37967 180.389 7.50567 179.651L9.82767 164.99C9.93567 164.324 10.1877 163.82 10.5837 163.478C10.9797 163.136 11.5107 162.965 12.1767 162.965H16.5777C19.6737 162.965 22.0677 163.694 23.7597 165.152C25.4517 166.592 26.2977 168.608 26.2977 171.2C26.2977 172.73 26.0637 174.152 25.5957 175.466C25.1457 176.78 24.4617 177.923 23.5437 178.895C22.6257 179.867 21.4827 180.632 20.1147 181.19C18.7467 181.73 17.1537 182 15.3357 182H9.50367ZM11.8527 178.571H15.3897C16.5057 178.571 17.4777 178.391 18.3057 178.031C19.1337 177.671 19.8087 177.167 20.3307 176.519C20.8707 175.871 21.2667 175.106 21.5187 174.224C21.7887 173.324 21.9237 172.334 21.9237 171.254C21.9237 169.688 21.4737 168.491 20.5737 167.663C19.6917 166.817 18.3597 166.394 16.5777 166.394H13.7967L11.8527 178.571ZM30.4399 182C29.6659 182 29.1079 181.802 28.7659 181.406C28.4239 180.992 28.3069 180.407 28.4149 179.651L30.7369 164.99C30.8449 164.324 31.0969 163.82 31.4929 163.478C31.8889 163.136 32.4199 162.965 33.0859 162.965H42.3739C42.9319 162.965 43.3549 163.082 43.6429 163.316C43.9489 163.532 44.1019 163.856 44.1019 164.288C44.1019 164.9 43.9219 165.377 43.5619 165.719C43.2199 166.061 42.7519 166.232 42.1579 166.232H34.5439L33.8419 170.687H40.5649C41.1229 170.687 41.5459 170.804 41.8339 171.038C42.1219 171.272 42.2659 171.596 42.2659 172.01C42.2659 172.622 42.0859 173.108 41.7259 173.468C41.3839 173.81 40.9249 173.981 40.3489 173.981H33.3289L32.5729 178.733H39.8629C40.4209 178.733 40.8439 178.85 41.1319 179.084C41.4379 179.3 41.5909 179.624 41.5909 180.056C41.5909 180.668 41.4109 181.145 41.0509 181.487C40.7089 181.829 40.2409 182 39.6469 182H30.4399ZM54.1665 182.243C53.4465 182.243 52.9245 182.036 52.6005 181.622C52.2765 181.19 52.1685 180.605 52.2765 179.867L54.6255 164.99C54.7335 164.324 54.9855 163.82 55.3815 163.478C55.7775 163.136 56.3085 162.965 56.9745 162.965H66.0195C66.5775 162.965 67.0005 163.082 67.2885 163.316C67.5945 163.532 67.7475 163.856 67.7475 164.288C67.7475 164.882 67.5765 165.359 67.2345 165.719C66.9105 166.061 66.4335 166.232 65.8035 166.232H58.6485L57.8925 170.876H64.1835C64.7415 170.876 65.1645 170.993 65.4525 171.227C65.7585 171.443 65.9115 171.767 65.9115 172.199C65.9115 172.775 65.7405 173.243 65.3985 173.603C65.0565 173.963 64.5795 174.143 63.9675 174.143H57.3795L56.4345 180.191C56.2185 181.559 55.4625 182.243 54.1665 182.243ZM69.403 182.243C68.755 182.243 68.269 182.027 67.945 181.595C67.639 181.145 67.549 180.533 67.675 179.759L70.024 165.044C70.114 164.36 70.366 163.847 70.78 163.505C71.194 163.145 71.752 162.965 72.454 162.965H78.151C80.275 162.965 81.895 163.442 83.011 164.396C84.145 165.35 84.712 166.655 84.712 168.311C84.712 169.751 84.397 170.939 83.767 171.875C83.137 172.793 82.264 173.477 81.148 173.927C80.032 174.359 78.763 174.575 77.341 174.575V174.116H78.205C79.087 174.116 79.807 174.368 80.365 174.872C80.923 175.358 81.373 176.033 81.715 176.897L82.741 179.543C82.957 180.101 83.029 180.587 82.957 181.001C82.903 181.397 82.714 181.703 82.39 181.919C82.066 182.135 81.607 182.243 81.013 182.243C80.437 182.243 79.978 182.099 79.636 181.811C79.294 181.505 79.006 181.037 78.772 180.407L77.179 176.222C76.981 175.646 76.702 175.241 76.342 175.007C76 174.755 75.523 174.629 74.911 174.629H72.67L71.833 180.137C71.725 180.839 71.464 181.37 71.05 181.73C70.654 182.072 70.105 182.243 69.403 182.243ZM73.156 171.605H77.26C78.358 171.605 79.204 171.362 79.798 170.876C80.392 170.372 80.689 169.634 80.689 168.662C80.689 167.852 80.428 167.249 79.906 166.853C79.402 166.439 78.592 166.232 77.476 166.232H74.02L73.156 171.605ZM95.6039 182.297C93.8579 182.297 92.3279 181.964 91.0139 181.298C89.7179 180.632 88.7099 179.669 87.9899 178.409C87.2699 177.149 86.9099 175.628 86.9099 173.846C86.9099 172.226 87.1439 170.732 87.6119 169.364C88.0979 167.996 88.7819 166.817 89.6639 165.827C90.5639 164.819 91.6349 164.045 92.8769 163.505C94.1189 162.947 95.5139 162.668 97.0619 162.668C98.8259 162.668 100.356 163.001 101.652 163.667C102.966 164.333 103.974 165.296 104.676 166.556C105.396 167.816 105.756 169.328 105.756 171.092C105.756 172.73 105.522 174.233 105.054 175.601C104.586 176.969 103.902 178.157 103.002 179.165C102.12 180.155 101.058 180.929 99.8159 181.487C98.5739 182.027 97.1699 182.297 95.6039 182.297ZM95.6849 178.733C96.8909 178.733 97.9169 178.409 98.7629 177.761C99.6269 177.113 100.284 176.222 100.734 175.088C101.184 173.936 101.409 172.631 101.409 171.173C101.409 169.499 101.013 168.257 100.221 167.447C99.4289 166.637 98.3489 166.232 96.9809 166.232C95.7749 166.232 94.7489 166.556 93.9029 167.204C93.0569 167.834 92.4089 168.716 91.9589 169.85C91.5089 170.984 91.2839 172.298 91.2839 173.792C91.2839 175.448 91.6709 176.69 92.4449 177.518C93.2369 178.328 94.3169 178.733 95.6849 178.733ZM113.016 182.243C112.332 182.243 111.828 182.027 111.504 181.595C111.198 181.145 111.108 180.542 111.234 179.786L113.34 166.421H108.912C108.336 166.421 107.886 166.295 107.562 166.043C107.238 165.791 107.076 165.449 107.076 165.017C107.076 164.369 107.256 163.865 107.616 163.505C107.994 163.145 108.507 162.965 109.155 162.965H122.52C123.114 162.965 123.564 163.091 123.87 163.343C124.194 163.577 124.356 163.91 124.356 164.342C124.356 164.99 124.176 165.503 123.816 165.881C123.456 166.241 122.952 166.421 122.304 166.421H117.552L115.365 180.137C115.257 180.821 115.005 181.343 114.609 181.703C114.231 182.063 113.7 182.243 113.016 182.243ZM122 182.243C121.514 182.243 121.1 182.135 120.758 181.919C120.434 181.685 120.245 181.388 120.191 181.028C120.119 180.65 120.218 180.236 120.488 179.786L130.154 164.153C130.46 163.649 130.793 163.289 131.153 163.073C131.513 162.839 131.972 162.722 132.53 162.722C133.088 162.722 133.547 162.866 133.907 163.154C134.285 163.442 134.555 163.874 134.717 164.45L139.28 179.705C139.442 180.263 139.469 180.731 139.361 181.109C139.253 181.469 139.046 181.748 138.74 181.946C138.434 182.144 138.065 182.243 137.633 182.243C137.021 182.243 136.553 182.099 136.229 181.811C135.923 181.505 135.689 181.037 135.527 180.407L134.636 177.005L135.851 177.869H124.889L126.374 177.086L124.079 181.028C123.845 181.424 123.557 181.73 123.215 181.946C122.891 182.144 122.486 182.243 122 182.243ZM132.044 167.42L127.4 175.358L126.806 174.602H135.014L134.204 175.439L132.098 167.42H132.044Z" fill="black"/>
<defs>
<clipPath id="clip0_1_36">
<rect width="122.88" height="92.02" fill="white" transform="translate(13 11)"/>
</clipPath>
</defs>
</svg>
